<svg xmlns="http://www.w3.org/2000/svg" viewBox="0 0 400 300" fill="none">
  <defs>
    <pattern id="grid" width="20" height="20" patternUnits="userSpaceOnUse">
      <path d="M 20 0 L 0 0 0 20" fill="none" stroke="#E5E5E5" stroke-width="0.5"/>
    </pattern>
    <linearGradient id="docGrad" x1="0" y1="0" x2="1" y2="1">
      <stop offset="0%" stop-color="#5B5BD6" stop-opacity="0.08"/>
      <stop offset="100%" stop-color="#5B5BD6" stop-opacity="0.02"/>
    </linearGradient>
    <linearGradient id="sealGrad" x1="0" y1="0" x2="1" y2="1">
      <stop offset="0%" stop-color="#5B5BD6"/>
      <stop offset="100%" stop-color="#7C7CE8"/>
    </linearGradient>
  </defs>

  <rect width="400" height="300" fill="url(#grid)"/>
  <rect x="123" y="57" width="154" height="196" rx="8" fill="#0f0f0f" opacity="0.06"/>
  <rect x="120" y="54" width="154" height="196" rx="8" fill="white" stroke="#E5E5E5" stroke-width="1.5"/>
  <rect x="120" y="54" width="154" height="196" rx="8" fill="url(#docGrad)"/>

  <rect x="140" y="82" width="80" height="6" rx="3" fill="#E5E5E5"/>
  <rect x="140" y="96" width="114" height="4" rx="2" fill="#F0F0F0"/>
  <rect x="140" y="108" width="100" height="4" rx="2" fill="#F0F0F0"/>
  <rect x="140" y="120" width="110" height="4" rx="2" fill="#F0F0F0"/>

  <line x1="140" y1="136" x2="254" y2="136" stroke="#E5E5E5" stroke-width="1"/>

  <rect x="140" y="148" width="50" height="4" rx="2" fill="#E5E5E5"/>
  <rect x="196" y="148" width="70" height="4" rx="2" fill="#F0F0F0"/>
  <rect x="140" y="160" width="40" height="4" rx="2" fill="#E5E5E5"/>
  <rect x="196" y="160" width="60" height="4" rx="2" fill="#F0F0F0"/>
  <rect x="140" y="172" width="55" height="4" rx="2" fill="#E5E5E5"/>
  <rect x="196" y="172" width="80" height="4" rx="2" fill="#F0F0F0"/>
  <rect x="140" y="184" width="45" height="4" rx="2" fill="#E5E5E5"/>
  <rect x="196" y="184" width="65" height="4" rx="2" fill="#F0F0F0"/>

  <circle cx="230" cy="210" r="30" fill="url(#sealGrad)" opacity="0.15"/>
  <circle cx="230" cy="210" r="25" fill="none" stroke="#5B5BD6" stroke-width="1.5" stroke-dasharray="4 2"/>
  <circle cx="230" cy="210" r="15" fill="#5B5BD6"/>
  <path d="M222 210 L228 216 L238 204" stroke="white" stroke-width="2.5" stroke-linecap="round" stroke-linejoin="round"/>

  <rect x="254" y="54" width="72" height="22" rx="11" fill="#5B5BD6"/>
  <text x="290" y="69" font-family="system-ui, sans-serif" font-size="9" font-weight="600" fill="white" text-anchor="middle">ARES &#x2713;</text>

  <circle cx="96" cy="90" r="4" fill="#5B5BD6" opacity="0.3"/>
  <circle cx="84" cy="130" r="6" fill="#5B5BD6" opacity="0.15"/>
  <circle cx="318" cy="170" r="5" fill="#5B5BD6" opacity="0.2"/>
  <circle cx="306" cy="220" r="3" fill="#5B5BD6" opacity="0.25"/>
</svg>
